<svg id="Layer_1" data-name="Layer 1" xmlns="http://www.w3.org/2000/svg" viewBox="0 0 56.1 73.92"><defs><style>.cls-1{fill:#fff;}</style></defs><title>boom</title><polygon class="cls-1" points="1.49 32.55 7.46 33.1 8.66 20.16 15.7 30.85 27.49 22.9 22.49 33.49 34.44 34.59 21.94 39.46 30.07 49.25 17.31 46.06 16.39 56.02 8.17 47.23 1.91 49.85 1.49 32.55"/><path class="cls-1" d="M18.91,73.92a1,1,0,0,1-.73-.32L1.68,56A1,1,0,1,1,3.14,54.6l15,16,1.64-17.75a1,1,0,0,1,.42-.73A1,1,0,0,1,21,52l22.63,5.65L29.26,40.35a1,1,0,0,1-.2-.89,1,1,0,0,1,.61-.68l21.12-8.23L31,28.73a1,1,0,0,1-.81-1.43L38.69,9.37l-20.6,13.9a1,1,0,0,1-.76.16,1,1,0,0,1-.64-.44L4.13,3.93,2,27.05A1,1,0,0,1,.91,28,1,1,0,0,1,0,26.87L2.4.91A1,1,0,0,1,4.23.45l13.58,20.6L40.59,5.67a1,1,0,0,1,1.47,1.26L32.65,26.86,55.19,29a1,1,0,0,1,.9.85,1,1,0,0,1-.63,1.08L31.69,40.14,47.11,58.7a1,1,0,0,1-1,1.61L21.64,54.2,19.9,73a1,1,0,0,1-.67.85A1,1,0,0,1,18.91,73.92Z"/></svg>