<svg id="af80e592-89e9-4c95-8673-4e507a7282c0" data-name="Layer 1" xmlns="http://www.w3.org/2000/svg" viewBox="0 0 1222.01 975.91"><path d="M552.77,395.76l-274,274s-144-212.46,61.5-360.62c-16.77-53.11-58.7-121.6-58.7-121.6l-37.74,79.67-93.65,7s-34-14.23-33.55-40.54c1.12-64.42,62.72-180.3,272.56-184.5C598.9,44.92,657.6,212.66,657.6,212.66s39.14-53.12,170.53-53.12,254.29,79.59,278.15,188.7c9.79,44.73-124.4,32.15-124.4,32.15l-43.33-82.47-41.93,82.47H666s123,494.8,7,543.73-173.32-8.39-162.14-65.7S584.92,513.17,552.77,395.76Z" style="fill:#fff"/></svg>