<svg id="Layer_1" data-name="Layer 1" xmlns="http://www.w3.org/2000/svg" viewBox="0 0 502 386"><defs><style>.cls-1{fill:#fff;}</style></defs><title>people</title><g id="Floio0.tif"><path class="cls-1" d="M501.07,267.54c-14.51,7.82-30.32,11.24-46.41,13.6-6.4.94-12.89,1.21-19.31,2-2.91.36-3.61-.63-3.56-3.43.17-10.44.43-20.92-2.54-31.11-7-24.09-21.88-41.18-45.22-50.74-1.79-.74-3.85-1-5.47-2.67,8.79-9,14.73-19.5,17.13-31.87,0-.16.08-.32.12-.48.83-3-.59-7.5,1.8-8.87,2.65-1.53,6.74-.74,10.19-.66,13.77.31,27.64-1.37,41.28,1,27.95,4.89,47.71,25.58,51.9,53.6.1.67.16,1.3.94,1.52v4c-1,1.71-.47,3.57-.5,5.36C501.18,235.05,501.83,251.3,501.07,267.54Z"/><path class="cls-1" d="M501.07,267.54Q501,241.79,500.9,216c0-1,0-2,1-2.58v53.84Z"/><path class="cls-1" d="M170.07,336.34c.26-10.39-1-22.42,1.86-34.18,6.8-28.08,30.5-47.06,60.78-48.12,15.43-.55,30.92-.47,46.34.19,32.55,1.41,58.53,28.2,59.25,60.85.37,16.59,0,33.2.23,49.8,0,3.28-1.69,4.19-4.06,5.26-16.69,7.49-34.35,11-52.42,12.76C245,386.53,209,380.74,173.52,370.15c-2.86-.86-3.54-2.16-3.5-4.88C170.16,356.14,170.07,347,170.07,336.34Z"/><path class="cls-1" d="M211.83,245.08c-5.41,2.71-11,4.28-16,7.36-23.42,14.54-36.18,35.32-37.35,63-.18,4.31-.27,8.64,0,12.94.19,3.32-.77,4.16-4.18,3.91a303.71,303.71,0,0,1-62-11.54c-8.8-2.54-8.81-2.5-8.81-11.76,0-13.62-.08-27.23,0-40.84.25-37.48,26.45-64.33,63.86-65.26,13.45-.33,26.92.06,40.37-.12,4.33-.05,5.63,1.33,6.08,5.84C195.26,222.74,201.57,234.8,211.83,245.08Z"/><path class="cls-1" d="M124.94,197.26c-14.18,4.62-25.8,12-35.14,22.78-12.3,14.27-18.39,30.84-18.64,49.61-.06,4.15,0,8.3,0,12.45,0,1.66-.08,2.72-2.38,2.59C47.09,283.53,26,279.84,5.85,271.37c-3.51-1.47-4.91-3.25-4.77-7.29.64-17.9-1.19-35.9.9-53.73,3.67-31.24,28.93-54.26,60.51-55.46,13.43-.5,26.9-.09,40.36-.21,2.18,0,3.35.36,3.52,2.83C107.44,172.87,113.76,185.87,124.94,197.26Z"/><path class="cls-1" d="M297.16,244.82c10.81-11,17.06-24.26,18.12-39.79.09-1.3.35-2.27,2-2.21,19.53.81,39.36-2.61,58.54,3,25.6,7.49,43.79,31.61,44.29,58.21.32,16.61,0,33.23.23,49.84,0,2.95-1.26,4.11-3.56,5.12a162.45,162.45,0,0,1-45,12c-5.93.75-11.92,1-17.84,1.78-2.87.38-3.72-.36-3.67-3.29.2-10.62.65-21.31-2.46-31.64-7.29-24.19-22.38-41.35-46.09-50.68C300.16,246.6,298.39,246.42,297.16,244.82Z"/><path class="cls-1" d="M198.37,54.74A53.51,53.51,0,1,1,252.1,108,53.35,53.35,0,0,1,198.37,54.74Z"/><path class="cls-1" d="M303.63,201.38a49.45,49.45,0,0,1-49.68,49c-26.77-.15-49.07-22.57-49-49.29s22.7-49.45,49.56-49.38S303.76,174.36,303.63,201.38Z"/><path class="cls-1" d="M118.25,150.23C120,110.1,161.84,87.89,194.6,109c14.41,9.28,21.81,23.21,22.37,40.54a6.37,6.37,0,0,1-2.47,5.54,58.56,58.56,0,0,0-19.91,34.08,5.62,5.62,0,0,1-3.09,4.12c-25.79,15-61.44,1.33-70.39-27.14a68,68,0,0,1-2.21-8.64C118.42,154.73,118.39,151.89,118.25,150.23Z"/><path class="cls-1" d="M417.29,149.74a82,82,0,0,1-8.61-.75c-7.42-1.22-12.42-3.29-14-12.5-2.5-14.5-11.31-26-23.45-34.47-2.63-1.84-3.2-3.75-2.89-6.61,2.46-23.3,21.43-41.77,45.42-44.14,22-2.17,43.72,12.62,50.6,34.44A49.16,49.16,0,0,1,417.29,149.74Z"/><path class="cls-1" d="M85.62,52.62a50.22,50.22,0,0,1,49,44.26c.31,2.81-.12,4.78-2.76,6.65-13.9,9.87-22.33,23.31-25,40.21-.37,2.32-1.36,3.31-3.44,4.19-24.27,10.28-54.84-3.06-63.89-28C28.72,90,45.87,59.63,77.22,53.5,80,53,82.82,52.9,85.62,52.62Z"/><path class="cls-1" d="M385.34,150.18c0,34-34.11,57.9-66,46.42-3-1.09-4.46-2.6-5-5.82-2.63-16.15-10.85-29-24-38.61-3-2.17-3.79-4.17-3.33-7.77a49.89,49.89,0,0,1,52.4-43.5C364.83,102.49,385.35,124.52,385.34,150.18Z"/><path class="cls-1" d="M193.52,28c-.88,2.38-2,4.82-2.7,7.36-5.25,18.55-3,36.09,7.48,52.38,1.76,2.75,2.45,4.61-.15,7.61s-4.52,1.79-7.13.63c-13.94-6.23-28.17-7.21-42.56-1.72-3.74,1.43-5.24,1.76-6.09-3.33-2.67-15.93-11-28.65-24.43-37.75-3.1-2.11-3.48-3.79-2.25-7.15C126.84,15.3,167,4.28,191.82,25.21,192.65,25.91,194,26.31,193.52,28Z"/><path class="cls-1" d="M345.08,14.27c18.44-.08,36.65,11.69,44.13,28.94,1.18,2.71,1.26,4.1-1.71,5.82-16,9.27-25.71,23.11-28.61,41.39-.62,3.92-1.86,4.26-5.21,3.2-14.11-4.51-28.06-4.06-41.67,2-1.93.86-3.47.94-4.49-1.17-1.26-2.62-5.42-3.94-2.71-8.29,8-12.85,10.66-26.93,8.52-41.91a38.15,38.15,0,0,0-2.88-11c-1.43-3-.42-4.78,1.86-6.71C321.5,18.76,332.07,14.66,345.08,14.27Z"/><path class="cls-1" d="M214.76,112.65a685.12,685.12,0,0,1,74.05-.08c-4.3,7.27-7.73,13.92-9.63,21.3-.89,3.44.62,8.56-2.5,9.94-2.4,1.07-6.41-1.83-9.78-2.58a57.19,57.19,0,0,0-37.31,4.14c-1.3.6-3.54,2.7-3.68-1.05C225.51,133.12,221.69,123.07,214.76,112.65Z"/></g></svg>