<svg id="ae34b28a-a512-4b0e-b9eb-fc0ed848d91c" data-name="Layer 1" xmlns="http://www.w3.org/2000/svg" viewBox="0 0 90 90"><path d="M80,46.83l5.43-.58L79.58,39.5l5.19-1.69-7.09-5.39,4.73-2.74-8-3.8,4-3.66-8.66-2L73,15.76l-8.9-.19,2.22-5-8.74,1.67,1.13-5.35-8.2,3.45V4.87L43.16,10,42,4.61l-6.09,6.5-2.22-5-4.62,7.63-3.2-4.42L23,17.74,18.9,14.08l-1.12,8.85-4.72-2.74.74,8.89L8.61,27.39l2.57,8.54-5.43-.57L10,43.18l-5.43.57,5.81,6.75L5.23,52.19l7.09,5.39L7.59,60.32l8.05,3.8-4.05,3.66,8.66,2-3.2,4.42,8.89.19-2.22,5,8.74-1.67-1.13,5.35,8.2-3.45v5.46L46.84,80,48,85.39l6.09-6.5,2.22,5,4.61-7.63,3.21,4.42L67,72.26l4.06,3.66,1.12-8.85,4.72,2.74-.74-8.89,5.19,1.69-2.57-8.54,5.43.57ZM45,75.44A30.44,30.44,0,1,1,75.37,45,30.41,30.41,0,0,1,45,75.44ZM65.09,24.87A28.51,28.51,0,1,0,73.41,45,28.31,28.31,0,0,0,65.09,24.87Zm-20.27,6.3A1.81,1.81,0,1,1,43,33,1.81,1.81,0,0,1,44.82,31.17Zm-12,15.64A1.81,1.81,0,1,1,34.63,45,1.81,1.81,0,0,1,32.82,46.81Zm12,12A1.81,1.81,0,1,1,46.62,57,1.81,1.81,0,0,1,44.82,58.83ZM45,52a7,7,0,1,1,7-7A7,7,0,0,1,45,52Zm11.81-5.23A1.81,1.81,0,1,1,58.62,45,1.81,1.81,0,0,1,56.81,46.81Z" style="fill:#fff"/></svg>