<svg id="Layer_1" data-name="Layer 1" xmlns="http://www.w3.org/2000/svg" viewBox="0 0 512 438"><defs><style>.cls-1{fill:#fff;}.cls-2{fill:#757575;}</style></defs><title>speak</title><path class="cls-1" d="M509.17,226.32q-12.65,84-71.92,144.8c-7.77,8-18.5,8.48-25.69,1.28a17,17,0,0,1-.35-23.88c10.12-10.85,19.93-21.91,28.07-34.34Q488,239.79,474.11,151.94c-7.45-46.51-27.94-86.69-61-120.23C401.06,19.43,408,3.23,419.84,1c2.42-.81,4.91-.18,7.36-.38,4.33-.18,7.54,2,10.5,4.89a250.29,250.29,0,0,1,41.37,54.21,254.6,254.6,0,0,1,31.43,92.56Z"/><path class="cls-2" d="M427.93.1A.78.78,0,0,0,428,1l-8.16,0a1,1,0,0,0,.09-.89Z"/><path class="cls-1" d="M403.69,187.63c-.63,42.47-15.11,78.05-43.79,107.74-6.91,7.14-17.13,7.45-24.22,1.06a16.8,16.8,0,0,1-1-24.52c12.89-13.8,23.24-29.09,28.66-47.28q18.21-61.12-21.84-110.95c-2.09-2.58-4.51-4.9-6.66-7.43-6.87-8.09-6.4-18.34,1.06-24.93,7.23-6.38,17.4-5.63,24.55,1.79a151.37,151.37,0,0,1,39.44,72.61C402.42,166.64,403.19,177.73,403.69,187.63Z"/><path class="cls-1" d="M318.56,186.73c-.38,24-7.83,42.88-22.89,58.65-6.9,7.22-17.05,7.91-24.21,1.75-7.42-6.38-8.32-16.68-1.59-24.48,7.47-8.66,12.91-18.11,13.8-29.73a45.44,45.44,0,0,0-9.48-32.21c-2.72-3.55-6.17-6.59-7.76-10.93A17.24,17.24,0,0,1,295,131.89a78.83,78.83,0,0,1,22,41.73C317.91,178.68,318.23,183.85,318.56,186.73Z"/><circle class="cls-1" cx="120" cy="188.98" r="85"/><path class="cls-1" d="M0,407.21v-52.3C0,315.19,71.34,283,110,283h20c38.66,0,110,32.19,110,71.91v52.3C240,446.93,0,446.93,0,407.21Z"/></svg>